# xmcd
#
# Track frame offsets:
#	182
#	13445
#	29140
#	44995
#	58355
#	73137
#	92420
#	104247
#	120597
#	137812
#	170695
#	192217
#	209935
#	224567
#	236717
#	252865
#	288315
#	299465
#
# Disc length: 4265 seconds
# Revision: 5
# Processed by: cddbd v1.5.2PL0 Copyright (c) Steve Scherf et al.
# Submitted via: dBpowerAMP V12.0
#
DISCID=4010a712
DTITLE=Professor Longhair - 'Fess - The Professor Longhair Anthology [CD2]
DYEAR=1974
DGENRE=Blues
TTITLE0=Mardi Gras In New Orleans
TTITLE1=Junco Partner
TTITLE2=How Long Has That Train Been Gone
TTITLE3=Stagolee
TTITLE4=Meet Me Tomorrow Night
TTITLE5=(They Call Me) Dr. Professor Longhair
TTITLE6=Mess Around
TTITLE7=Cry To Me
TTITLE8=Whole Lotta Loving
TTITLE9=Everyday I Have The Blues
TTITLE10=Got My Mojo Working
TTITLE11=Thank You Pretty Baby
TTITLE12=Sick And Tired
TTITLE13=Mean Old World
TTITLE14=Tipitina (live)
TTITLE15=Big Chief (live)
TTITLE16=Rum and Coca-cola (Version Two)
TTITLE17=Boogie Woogie
EXTD=
EXTT0=
EXTT1=
EXTT2=
EXTT3=
EXTT4=
EXTT5=
EXTT6=
EXTT7=
EXTT8=
EXTT9=
EXTT10=
EXTT11=
EXTT12=
EXTT13=
EXTT14=
EXTT15=
EXTT16=
EXTT17=
PLAYORDER=
